<svg xmlns="http://www.w3.org/2000/svg" version="1.1" xmlns:xlink="http://www.w3.org/1999/xlink" xmlns:svgjs="http://svgjs.dev/svgjs" width="2000" height="1247" viewBox="0 0 2000 1247"><g transform="matrix(1,0,0,1,-1.2121212121212466,0.504858299595071)"><svg viewBox="0 0 396 247" data-background-color="#f9f9f9" preserveAspectRatio="xMidYMid meet" height="1247" width="2000" xmlns="http://www.w3.org/2000/svg" xmlns:xlink="http://www.w3.org/1999/xlink"><g id="tight-bounds" transform="matrix(1,0,0,1,0.2400000000000091,-0.09999999999999432)"><svg viewBox="0 0 395.52 247.2" height="247.2" width="395.52"><g><svg></svg></g><g><svg viewBox="0 0 395.52 247.2" height="247.2" width="395.52"><g transform="matrix(1,0,0,1,75.54432,100.77325716984845)"><svg viewBox="0 0 244.43135999999998 45.65348566030309" height="45.65348566030309" width="244.43135999999998"><g><svg viewBox="0 0 244.43135999999998 45.65348566030309" height="45.65348566030309" width="244.43135999999998"><g><svg viewBox="0 0 244.43135999999998 45.65348566030309" height="45.65348566030309" width="244.43135999999998"><g><svg viewBox="0 0 244.43135999999998 45.65348566030309" height="45.65348566030309" width="244.43135999999998"><g id="textblocktransform"><svg viewBox="0 0 244.43135999999998 45.65348566030309" height="45.65348566030309" width="244.43135999999998" id="textblock"><g><svg viewBox="0 0 244.43135999999998 45.65348566030309" height="45.65348566030309" width="244.43135999999998"><g transform="matrix(1,0,0,1,0,0)"><svg width="244.43135999999998" viewBox="3.5 -36.3 254.02999999999997 47.449999999999996" height="45.65348566030309" data-palette-color="#030303"><path d="M23.4 0L23.4-15.4 9.45-15.4 9.45 0 3.5 0 3.5-33.85 9.45-33.85 9.45-19.75 23.4-19.75 23.4-33.85 29.35-33.85 29.35 0 23.4 0ZM36.35 0L36.35-33.85Q36.7-33.85 37.95-33.88 39.2-33.9 40.75-33.9 42.3-33.9 43.85-33.93 45.4-33.95 46.4-33.95L46.4-33.95Q52.6-33.95 55.45-31.53 58.3-29.1 58.3-24.7L58.3-24.7Q58.3-21.8 56.85-19.55 55.4-17.3 52.1-16.3L52.1-16.3Q53.5-15.5 54.6-14.1 55.7-12.7 56.75-10.68 57.8-8.65 58.9-5.98 60-3.3 61.45 0L61.45 0 55 0Q53.3-3.95 52.02-6.75 50.75-9.55 49.55-11.3 48.35-13.05 46.97-13.85 45.6-14.65 43.75-14.65L43.75-14.65 42.3-14.65 42.3 0 36.35 0ZM42.3-29.7L42.3-19 46.15-19Q48.95-19 50.47-20.25 52-21.5 52-23.95L52-23.95Q52-25.05 51.7-26.1 51.4-27.15 50.67-27.95 49.95-28.75 48.72-29.23 47.5-29.7 45.65-29.7L45.65-29.7 42.3-29.7ZM77.79 0L77.79-33.85Q78.14-33.85 79.39-33.88 80.64-33.9 82.19-33.9 83.74-33.9 85.29-33.93 86.84-33.95 87.84-33.95L87.84-33.95Q93.94-33.95 96.84-31.23 99.74-28.5 99.74-23.75L99.74-23.75Q99.74-21.45 98.94-19.53 98.14-17.6 96.57-16.2 94.99-14.8 92.67-14.03 90.34-13.25 87.24-13.25L87.24-13.25 83.74-13.25 83.74 0 77.79 0ZM83.74-29.65L83.74-17.7 87.59-17.7Q90.74-17.7 92.09-19.35 93.44-21 93.44-23.55L93.44-23.55Q93.44-24.7 93.14-25.8 92.84-26.9 92.12-27.78 91.39-28.65 90.17-29.18 88.94-29.7 87.09-29.7L87.09-29.7Q85.99-29.7 85.17-29.7 84.34-29.7 83.74-29.65L83.74-29.65ZM109.59 0.2Q106.74 0.2 105.39-1.38 104.04-2.95 104.04-5.4L104.04-5.4 104.04-35.25 109.74-36.3 109.74-5.95Q109.74-4.8 110.19-4.35 110.64-3.9 111.49-3.9L111.49-3.9Q111.99-3.9 112.47-3.95 112.94-4 113.34-4.1L113.34-4.1Q113.79-4.2 114.14-4.3L114.14-4.3 114.84-0.7Q114.19-0.45 113.39-0.25L113.39-0.25Q112.69-0.05 111.74 0.08 110.79 0.2 109.59 0.2L109.59 0.2ZM138.19-23.85L138.19-12.05Q138.19-9.05 138.56-7.03 138.94-5 139.39-3.75L139.39-3.75Q139.94-2.25 140.59-1.4L140.59-1.4 136.14 0.4Q135.49-0.25 134.94-1.15L134.94-1.15Q134.49-1.95 134.09-3.08 133.69-4.2 133.59-5.75L133.59-5.75Q132.74-2.75 130.86-1.23 128.99 0.3 125.79 0.3L125.79 0.3Q123.44 0.3 121.71-0.58 119.99-1.45 118.84-3.08 117.69-4.7 117.14-7 116.59-9.3 116.59-12.1L116.59-12.1Q116.59-14.95 117.46-17.38 118.34-19.8 119.91-21.55 121.49-23.3 123.69-24.3 125.89-25.3 128.54-25.3L128.54-25.3Q130.04-25.3 131.66-25.08 133.29-24.85 134.69-24.6 136.09-24.35 137.06-24.13 138.04-23.9 138.19-23.85L138.19-23.85ZM126.74-3.7Q127.99-3.7 129.04-4.55 130.09-5.4 130.86-6.78 131.64-8.15 132.06-9.93 132.49-11.7 132.49-13.55L132.49-13.55 132.49-20.75Q131.99-20.9 130.99-21.1 129.99-21.3 129.19-21.3L129.19-21.3Q127.29-21.3 126.06-20.65 124.84-20 124.09-18.85 123.34-17.7 123.04-16.1 122.74-14.5 122.74-12.6L122.74-12.6Q122.74-10.85 122.84-9.25 122.94-7.65 123.36-6.4 123.79-5.15 124.59-4.42 125.39-3.7 126.74-3.7L126.74-3.7ZM142.14-20.85L142.14-24.9 146.64-24.9 147.64-30.75 152.34-31.8 152.34-24.9 158.49-24.9 157.79-20.85 152.34-20.85 152.34-6.05Q152.34-4.75 153.04-4.38 153.74-4 154.59-4L154.59-4Q155.29-4 155.99-4.1 156.69-4.2 157.24-4.35L157.24-4.35Q157.89-4.5 158.49-4.7L158.49-4.7 159.44-0.95 158.99-0.8Q158.54-0.6 157.66-0.38 156.79-0.15 155.61 0.03 154.44 0.2 153.04 0.2L153.04 0.2Q151.64 0.2 150.46-0.1 149.29-0.4 148.44-1.07 147.59-1.75 147.11-2.8 146.64-3.85 146.64-5.4L146.64-5.4 146.64-20.85 142.14-20.85ZM178.53-34L176.08-30.75Q175.93-30.9 175.16-31.3 174.38-31.7 173.68-31.7L173.68-31.7Q173.23-31.7 172.58-31.58 171.93-31.45 171.33-31.03 170.73-30.6 170.31-29.8 169.88-29 169.88-27.7L169.88-27.7Q169.88-27.15 169.96-26.45 170.03-25.75 170.28-24.9L170.28-24.9 176.48-24.9 175.78-20.85 170.58-20.85 170.58-1.25Q170.58 1.75 169.81 3.78 169.03 5.8 167.78 7.18 166.53 8.55 165.01 9.47 163.48 10.4 161.98 11.15L161.98 11.15 159.68 7.35Q161.53 6.4 162.58 5.33 163.63 4.25 164.16 3.18 164.68 2.1 164.78 1.1 164.88 0.1 164.88-0.7L164.88-0.7 164.88-20.85 160.38-20.85 160.38-24.9 164.73-24.9Q164.53-25.65 164.46-26.45 164.38-27.25 164.38-27.95L164.38-27.95Q164.38-29.95 165.11-31.5 165.83-33.05 167.06-34.05 168.28-35.05 169.91-35.58 171.53-36.1 173.28-36.1L173.28-36.1Q175.23-36.1 176.48-35.48 177.73-34.85 178.53-34L178.53-34ZM188.93-25.5Q194.68-25.5 197.28-22.1 199.88-18.7 199.88-12.75L199.88-12.75Q199.88-9.95 199.18-7.53 198.48-5.1 197.06-3.33 195.63-1.55 193.48-0.53 191.33 0.5 188.48 0.5L188.48 0.5Q185.63 0.5 183.56-0.38 181.48-1.25 180.13-2.9 178.78-4.55 178.16-6.9 177.53-9.25 177.53-12.2L177.53-12.2Q177.53-15.05 178.23-17.48 178.93-19.9 180.36-21.68 181.78-23.45 183.93-24.48 186.08-25.5 188.93-25.5L188.93-25.5ZM188.43-21.3Q186.98-21.3 186.06-20.65 185.13-20 184.61-18.82 184.08-17.65 183.88-16.07 183.68-14.5 183.68-12.7L183.68-12.7Q183.68-10.85 183.91-9.2 184.13-7.55 184.73-6.33 185.33-5.1 186.36-4.4 187.38-3.7 188.98-3.7L188.98-3.7Q190.43-3.7 191.36-4.35 192.28-5 192.81-6.18 193.33-7.35 193.53-8.9 193.73-10.45 193.73-12.25L193.73-12.25Q193.73-14.1 193.51-15.75 193.28-17.4 192.68-18.65 192.08-19.9 191.06-20.6 190.03-21.3 188.43-21.3L188.43-21.3ZM216.03-19.7Q215.13-19.7 214.23-19.25 213.33-18.8 212.63-18.03 211.93-17.25 211.48-16.15 211.03-15.05 211.03-13.7L211.03-13.7 211.03 0 205.33 0 205.33-12.6Q205.33-15.6 204.93-17.63 204.53-19.65 204.08-20.9L204.08-20.9Q203.53-22.35 202.88-23.25L202.88-23.25 207.38-25.05Q207.83-24.5 208.33-23.7L208.33-23.7Q208.73-23 209.13-22.05 209.53-21.1 209.78-19.8L209.78-19.8Q210.78-22.7 212.68-23.98 214.58-25.25 216.98-25.25L216.98-25.25Q218.13-25.25 219.13-24.98 220.13-24.7 220.08-24.7L220.08-24.7 218.48-19.15Q218.53-19.15 217.9-19.43 217.28-19.7 216.03-19.7L216.03-19.7ZM257.53 0L251.88 0 251.88-16.3Q251.88-18.4 251.23-19.63 250.58-20.85 248.98-20.85L248.98-20.85Q248.03-20.85 247.05-20.33 246.08-19.8 245.28-18.8 244.48-17.8 243.98-16.4 243.48-15 243.48-13.3L243.48-13.3 243.48 0 237.83 0 237.83-16.3Q237.83-18.4 237.18-19.63 236.53-20.85 234.93-20.85L234.93-20.85Q233.93-20.85 232.95-20.28 231.98-19.7 231.2-18.6 230.43-17.5 229.95-15.93 229.48-14.35 229.48-12.4L229.48-12.4 229.48 0 223.78 0 223.78-12.6Q223.78-15.6 223.38-17.63 222.98-19.65 222.53-20.9L222.53-20.9Q221.98-22.35 221.33-23.25L221.33-23.25 225.83-25.05Q226.33-24.5 226.83-23.7L226.83-23.7Q227.23-23 227.63-21.98 228.03-20.95 228.28-19.65L228.28-19.65Q229.53-22.65 231.8-23.98 234.08-25.3 236.63-25.3L236.63-25.3Q239.18-25.3 240.6-24 242.03-22.7 242.73-20.65L242.73-20.65Q244.08-23.15 246.2-24.23 248.33-25.3 250.68-25.3L250.68-25.3Q252.63-25.3 253.95-24.68 255.28-24.05 256.05-22.93 256.83-21.8 257.18-20.23 257.53-18.65 257.53-16.7L257.53-16.7 257.53 0Z" opacity="1" transform="matrix(1,0,0,1,0,0)" fill="#030303" class="wordmark-text-0" data-fill-palette-color="primary" id="text-0"></path></svg></g></svg></g></svg></g></svg></g></svg></g></svg></g></svg></g><path d="M207.629 94.773L207.629 33.463 387.903 33.463 387.903 213.737 207.629 213.737 207.629 152.427 211.746 152.427 211.746 209.62 383.786 209.62 383.786 37.58 211.746 37.58 211.746 94.773Z" fill="#030303" stroke="transparent" data-fill-palette-color="tertiary"></path></svg></g><defs></defs></svg><rect width="395.52" height="247.2" fill="none" stroke="none" visibility="hidden"></rect></g></svg></g></svg>